<?xml version="1.0" standalone="no"?>
<!DOCTYPE svg PUBLIC "-//W3C//DTD SVG 20010904//EN"
 "http://www.w3.org/TR/2001/REC-SVG-20010904/DTD/svg10.dtd">
<svg version="1.0" xmlns="http://www.w3.org/2000/svg"
 width="512.000000pt" height="512.000000pt" viewBox="0 0 512.000000 512.000000"
 preserveAspectRatio="xMidYMid meet">
<metadata>
Created by potrace 1.11, written by Peter Selinger 2001-2013
</metadata>
<g transform="translate(0.000000,512.000000) scale(0.100000,-0.100000)"
fill="#000000" stroke="none">
<path d="M2409 4816 c-2 -2 -38 -6 -79 -10 -41 -3 -86 -8 -100 -11 -121 -20
-165 -30 -275 -60 -265 -73 -523 -200 -746 -368 -114 -86 -142 -110 -254 -222
-301 -302 -524 -713 -604 -1116 -19 -94 -22 -111 -36 -219 -13 -102 -14 -487
-2 -520 3 -8 8 -33 11 -55 9 -75 17 -120 28 -160 5 -22 12 -51 15 -65 2 -14
17 -68 34 -120 131 -422 390 -810 719 -1078 36 -29 74 -60 84 -69 55 -44 233
-154 340 -208 196 -99 438 -182 586 -202 19 -2 42 -7 50 -9 8 -3 67 -12 130
-19 110 -13 452 -14 509 -1 13 3 48 8 78 11 65 6 239 46 352 81 278 86 590
261 801 449 275 246 458 501 613 855 45 104 107 321 132 463 41 232 41 579 0
787 -22 113 -29 144 -46 205 -47 166 -111 326 -186 465 -177 330 -426 605
-733 811 -123 82 -120 80 -220 133 -176 92 -443 186 -600 212 -14 2 -35 7 -48
9 -12 3 -44 8 -70 11 -26 3 -58 7 -72 10 -28 6 -406 15 -411 10z"/>
</g>
</svg>
