<svg width="16" height="16" viewBox="0 0 16 16" xmlns="http://www.w3.org/2000/svg"><path d="M5.895 8.5c-.024.768.372 1.487 1.033 1.878.66.39 1.483.39 2.144 0 .66-.39 1.057-1.11 1.033-1.878.024-.768-.372-1.487-1.033-1.878-.66-.39-1.483-.39-2.144 0-.66.39-1.057 1.11-1.033 1.878zM16 8.5C14.467 5.768 11.46 3 8 3 4.547 3 1.533 5.768 0 8.5 1.533 11.232 4.547 14 8 14c3.46 0 6.467-2.768 8-5.5zM8 4.692c2.09 0 3.79 1.705 3.79 3.808 0 2.103-1.7 3.808-3.79 3.808S4.21 10.603 4.21 8.5c0-2.103 1.7-3.808 3.79-3.808z" fill="#555" fill-rule="evenodd"/></svg>
