<svg width="16" height="16" viewBox="0 0 16 16" xmlns="http://www.w3.org/2000/svg"><path d="M4.406 13.035L2.5 14.94l-1.414-1.414 1.656-1.656C1.607 10.9.664 9.71 0 8.526c1.533-2.732 4.547-5.5 8-5.5 1.025 0 2.01.243 2.93.656L13.012 1.6l1.414 1.414-1.723 1.723C14.088 5.772 15.23 7.154 16 8.527c-1.533 2.73-4.54 5.5-8 5.5-1.275 0-2.49-.378-3.594-.992zm5.152-7.98C9.082 4.837 8.555 4.717 8 4.717c-2.09 0-3.79 1.705-3.79 3.808 0 .552.117 1.076.327 1.55l1.36-1.362c-.003-.062-.004-.125-.002-.188-.024-.767.372-1.487 1.033-1.878.403-.238.865-.33 1.315-.28l1.315-1.314zm1.544 1.284L9.896 7.543c.145.3.22.637.21.982.023.768-.373 1.487-1.034 1.878-.64.377-1.426.39-2.075.04l-1.19 1.188c.62.442 1.377.702 2.193.702 2.09 0 3.79-1.705 3.79-3.808 0-.814-.255-1.568-.688-2.187z" fill="#555" fill-rule="nonzero"/></svg>
