<svg width="16" height="16" viewBox="0 0 16 16" xmlns="http://www.w3.org/2000/svg" xmlns:xlink="http://www.w3.org/1999/xlink"><title>Group 3</title><defs><path d="M2.5 11.5L13.012.988" id="b"/><filter x="-50%" y="-50%" width="200%" height="200%" filterUnits="objectBoundingBox" id="a"><feMorphology radius="1" operator="dilate" in="SourceAlpha" result="shadowSpreadOuter1"/><feOffset dy="2" in="shadowSpreadOuter1" result="shadowOffsetOuter1"/><feMorphology radius="1" in="SourceAlpha" result="shadowInner"/><feOffset dy="2" in="shadowInner" result="shadowInner"/><feComposite in="shadowOffsetOuter1" in2="shadowInner" operator="out" result="shadowOffsetOuter1"/><feColorMatrix values="0 0 0 0 1 0 0 0 0 1 0 0 0 0 1 0 0 0 1 0" in="shadowOffsetOuter1"/></filter></defs><g fill="none" fill-rule="evenodd"><path d="M5.895 7.5a2.106 2.106 0 1 0 4.21 0 2.106 2.106 0 1 0-4.21 0zM16 7.5C14.467 4.768 11.461 2 8 2 4.547 2 1.533 4.768 0 7.5 1.533 10.232 4.547 13 8 13c3.461 0 6.467-2.768 8-5.5zM8 3.692c2.09 0 3.79 1.705 3.79 3.808 0 2.103-1.7 3.808-3.79 3.808S4.21 9.603 4.21 7.5c0-2.103 1.7-3.808 3.79-3.808z" fill="#555"/><path d="M5.895 7.5a2.106 2.106 0 1 0 4.21 0 2.106 2.106 0 1 0-4.21 0zM16 7.5C14.467 4.768 11.461 2 8 2 4.547 2 1.533 4.768 0 7.5 1.533 10.232 4.547 13 8 13c3.461 0 6.467-2.768 8-5.5zM8 3.692c2.09 0 3.79 1.705 3.79 3.808 0 2.103-1.7 3.808-3.79 3.808S4.21 9.603 4.21 7.5c0-2.103 1.7-3.808 3.79-3.808z" fill="#555"/><g transform="translate(0 1)"><use fill="#000" filter="url(#a)" xlink:href="#b"/><use stroke="#555" stroke-width="2" stroke-linecap="square" xlink:href="#b"/></g></g></svg>